<svg xmlns="http://www.w3.org/2000/svg" version="1.1" xmlns:xlink="http://www.w3.org/1999/xlink" width="200" height="200"><svg xmlns="http://www.w3.org/2000/svg" version="1.1" xmlns:xlink="http://www.w3.org/1999/xlink" width="200" height="200"><svg xmlns="http://www.w3.org/2000/svg" version="1.1" xmlns:xlink="http://www.w3.org/1999/xlink" viewBox="0 0 200 200"><rect width="200" height="200" fill="url('#gradient')"></rect><defs><linearGradient id="gradient" gradientTransform="rotate(45 0.5 0.5)"><stop offset="0%" stop-color="#472027"></stop><stop offset="100%" stop-color="#192025"></stop></linearGradient></defs><g><g fill="#f3bd7d" transform="matrix(4.09705052577584,0,0,4.09705052577584,22.1162835179139,129.1294046517671)" stroke="#c06a3e" stroke-width="0.2"><path d="M3.77-14.22L6.59-3.87L9.42-14.22L13.25-14.22L8.47 0L4.72 0L-0.03-14.22L3.77-14.22ZM22.77-14.22L22.77-5.56L24.22-5.56L24.22-3.02L22.77-3.02L22.77 0L19.48 0L19.48-3.02L13.98-3.02L13.79-5.03L19.48-14.19L19.48-14.22L22.77-14.22ZM19.28-9.60L16.92-5.56L19.48-5.56L19.48-9.93L19.28-9.60ZM28.56-14.22L31.39-3.87L34.22-14.22L38.05-14.22L33.26 0L29.51 0L24.77-14.22L28.56-14.22Z"></path></g></g></svg></svg><style>@media (prefers-color-scheme: light) { :root { filter: none; } }
@media (prefers-color-scheme: dark) { :root { filter: none; } }
</style></svg>